<?xml version="1.0" encoding="UTF-8" standalone="no"?>
<svg
   width="153"
   version="1.0"
   height="103"
   id="svg18"
   sodipodi:docname="Flag_of_Argentina.svg"
   inkscape:version="1.4.4 (dcaf3e7d9e, 2026-05-05)"
   xmlns:inkscape="http://www.inkscape.org/namespaces/inkscape"
   xmlns:sodipodi="http://sodipodi.sourceforge.net/DTD/sodipodi-0.dtd"
   xmlns:xlink="http://www.w3.org/1999/xlink"
   xmlns="http://www.w3.org/2000/svg"
   xmlns:svg="http://www.w3.org/2000/svg">
  <defs
     id="defs18" />
  <sodipodi:namedview
     id="namedview18"
     pagecolor="#ffffff"
     bordercolor="#000000"
     borderopacity="0.25"
     inkscape:showpageshadow="2"
     inkscape:pageopacity="0.0"
     inkscape:pagecheckerboard="0"
     inkscape:deskcolor="#d1d1d1"
     inkscape:zoom="0.27665553"
     inkscape:cx="-43.37524"
     inkscape:cy="538.5759"
     inkscape:window-width="1366"
     inkscape:window-height="675"
     inkscape:window-x="0"
     inkscape:window-y="0"
     inkscape:window-maximized="1"
     inkscape:current-layer="svg18" />
  <rect
     width="153"
     fill="#74acdf"
     height="103"
     id="rect1"
     x="0"
     y="0"
     style="stroke-width:0.198488" />
  <rect
     y="34.334019"
     width="153"
     fill="#ffffff"
     height="34.334019"
     id="rect2"
     x="0"
     style="stroke-width:0.198488" />
  <g
     id="rays"
     transform="scale(0.19125,0.206)">
    <path
       id="ray1"
       stroke-width="1.1116"
       stroke="#85340a"
       fill="#f6b40e"
       d="m 396.84,251.31 28.454,61.992 c 0,0 0.4896,1.185 1.28,0.8586 0.7902,-0.3267 0.2988,-1.5116 0.2988,-1.5116 l -23.715,-63.956 m -0.68,24.12 c -0.3465,9.4278 5.4526,14.613 4.6943,23.032 -0.7569,8.42 3.8673,13.18 4.9396,16.454 1.0733,3.2744 -1.16,5.2323 -0.198,5.6982 0.96336,0.4662 3.07,-2.1207 2.3833,-6.7756 -0.68675,-4.6549 -4.2204,-6.0368 -3.3898,-16.32 0.83,-10.283 -4.206,-12.678 -2.98,-22.058" />
    <use
       xlink:href="#ray1"
       transform="rotate(22.5,400,250)"
       id="use2" />
    <use
       xlink:href="#ray1"
       transform="rotate(45,400,250)"
       id="use3" />
    <use
       xlink:href="#ray1"
       transform="rotate(67.5,400,250)"
       id="use4" />
    <path
       id="ray2"
       fill="#85340a"
       d="m 404.31,274.41 c 0.45334,9.0538 5.5867,13.063 4.5787,21.314 2.2133,-6.5249 -3.1233,-11.583 -2.82,-21.22 m -7.6487,-23.757 19.487,42.577 -16.329,-43.887" />
    <use
       xlink:href="#ray2"
       transform="rotate(22.5,400,250)"
       id="use5" />
    <use
       xlink:href="#ray2"
       transform="rotate(45,400,250)"
       id="use6" />
    <use
       xlink:href="#ray2"
       transform="rotate(67.5,400,250)"
       id="use7" />
  </g>
  <use
     xlink:href="#rays"
     transform="matrix(0,1.0771242,-0.92839806,0,124.3125,-30.9)"
     id="use8" />
  <use
     xlink:href="#rays"
     transform="rotate(180,76.5,51.5)"
     id="use9" />
  <use
     xlink:href="#rays"
     transform="matrix(0,-1.0771242,0.92839806,0,28.6875,133.9)"
     id="use10" />
  <ellipse
     stroke="#85340a"
     cy="51.5"
     cx="76.5"
     stroke-width="0.297732"
     fill="#f6b40e"
     id="circle10"
     rx="5.3125424"
     ry="5.7222681" />
  <path
     id="loweyecontour"
     fill="#843511"
     d="m 78.311137,50.27636 c -0.362743,6e-6 -0.71013,0.169297 -0.914404,0.521427 0.408644,0.396076 1.311306,0.439151 1.924358,-0.04506 -0.265513,-0.308053 -0.647286,-0.476375 -1.01003,-0.476375 z m -0.006,0.09013 c 0.353085,-0.0069 0.683087,0.167779 0.72914,0.341177 -0.408644,0.484183 -1.06159,0.442138 -1.470234,0.09013 0.17878,-0.308114 0.466478,-0.425946 0.741094,-0.431323 z"
     style="stroke-width:0.198488" />
  <use
     xlink:href="#uppalpebra"
     transform="matrix(-1,0,0,1,153.04781,0)"
     id="use11" />
  <use
     xlink:href="#eyebrow_nose"
     transform="matrix(-1,0,0,1,153.04781,0)"
     id="use12" />
  <use
     xlink:href="#pupil"
     transform="translate(3.6073575)"
     id="use13" />
  <use
     xlink:href="#lowpalpebra"
     transform="matrix(-1,0,0,1,153.04781,0)"
     id="use14" />
  <path
     d="m 75.687188,52.29104 c -0.17469,0.03434 -0.298829,0.201318 -0.298829,0.392677 0,0.218649 0.167818,0.392677 0.370547,0.392677 0.119851,0 0.229978,-0.06114 0.298828,-0.167375 0.141434,0.114565 0.33748,0.126713 0.442266,0.12875 0.01612,4.12e-4 0.03693,0 0.04781,0 0.104787,-0.0021 0.300836,-0.01419 0.442265,-0.12875 0.06885,0.106235 0.178978,0.167375 0.298828,0.167375 0.202725,0 0.370547,-0.174045 0.370547,-0.392677 0,-0.19137 -0.124156,-0.358357 -0.298828,-0.392677 0.09811,0.03726 0.161367,0.139359 0.161367,0.251073 0,0.145724 -0.109249,0.263927 -0.245029,0.263927 -0.130127,0 -0.237399,-0.111271 -0.24503,-0.251073 -0.0399,0.08577 -0.197771,0.340951 -0.507998,0.354073 -0.310246,-0.0131 -0.468104,-0.268294 -0.507998,-0.354073 -0.0076,0.139792 -0.114913,0.251073 -0.24503,0.251073 -0.135789,0 -0.245029,-0.118213 -0.245029,-0.263927 0,-0.111704 0.06326,-0.213787 0.161367,-0.251073 z"
     fill="#85340a"
     id="path14"
     style="stroke-width:0.198488" />
  <path
     d="m 76.0869,53.46318 c -0.408892,0 -0.57048,0.398981 -0.938311,0.663073 0.204389,-0.08782 0.365211,-0.261476 0.651436,-0.43775 0.28611,-0.176011 0.530088,0.03863 0.693281,0.03863 h 0.006 c 0.163175,0 0.407172,-0.21457 0.693281,-0.03863 0.286244,0.176315 0.453034,0.349932 0.657422,0.43775 -0.367831,-0.264092 -0.535423,-0.663073 -0.944296,-0.663073 -0.08159,0 -0.243194,0.04749 -0.406407,0.135187 h -0.006 C 76.330105,53.510525 76.168506,53.46318 76.0869,53.46318 Z"
     fill="#85340a"
     id="path15"
     style="stroke-width:0.198488" />
  <path
     d="m 75.9492,53.98436 c -0.161396,0.0077 -0.374773,0.04259 -0.681328,0.141625 0.735796,-0.175994 0.898148,0.09013 1.225186,0.09013 h 0.006 c 0.327037,0 0.48937,-0.266152 1.225185,-0.09013 -0.817479,-0.264092 -0.980003,-0.09013 -1.225185,-0.09013 h -0.006 c -0.153239,0 -0.274865,-0.06435 -0.543877,-0.0515 z"
     fill="#85340a"
     id="path16"
     style="stroke-width:0.198488" />
  <path
     d="m 75.304687,54.12032 c -0.04747,6.18e-4 -0.0992,10e-4 -0.15539,0.0064 0.85833,0.0881 0.445727,0.618 1.344717,0.618 h 0.006 c 0.899009,0 0.492373,-0.529914 1.350703,-0.618 -0.899009,-0.08788 -0.614792,0.482823 -1.350703,0.482823 h -0.006 c -0.689935,0 -0.477341,-0.498829 -1.189346,-0.48925 z"
     fill="#85340a"
     id="path17"
     style="stroke-width:0.198488" />
  <path
     d="m 77.236313,55.54996 c 0,-0.43742 -0.329582,-0.792379 -0.735605,-0.792379 -0.406081,0 -0.735605,0.354938 -0.735605,0.792379 0.0809,-0.366886 0.385675,-0.626096 0.735605,-0.626096 0.350618,0 0.65484,0.259272 0.735605,0.626096 z"
     fill="#85340a"
     id="path18"
     style="stroke-width:0.198488" />
  <path
     id="eyebrow_nose"
     fill="#85340a"
     d="m 73.197113,50.26812 c 0.939917,-0.880217 2.124787,-1.012428 2.778862,-0.351972 0.160076,0.230865 0.262644,0.477714 0.304738,0.735338 0.08227,0.501198 -0.06317,1.04271 -0.427769,1.597715 0.04114,-2.06e-4 0.123069,0.04375 0.163863,0.08788 0.324494,-0.668264 0.439244,-1.354677 0.332775,-2.007552 -0.02788,-0.170568 -0.07143,-0.338458 -0.128061,-0.501755 -0.899009,-0.792111 -2.124788,-0.880217 -3.023854,0.440367 z"
     style="stroke-width:0.198488" />
  <path
     id="uppalpebra"
     fill="#85340a"
     d="m 74.667825,50.00444 c 0.531044,0 0.653807,0.13219 0.899009,0.35226 0.245431,0.22007 0.367831,0.175945 0.408644,0.22007 0.04062,0.04412 0,0.175944 -0.08159,0.131819 -0.08159,-0.04413 -0.245431,-0.131819 -0.490231,-0.351971 -0.245431,-0.220338 -0.490231,-0.22007 -0.735605,-0.22007 -0.735604,0 -1.144248,0.660147 -1.225797,0.616084 -0.08159,-0.04413 0.408644,-0.748295 1.225797,-0.748295 z"
     style="stroke-width:0.198488" />
  <use
     xlink:href="#loweyecontour"
     transform="translate(-3.6683663)"
     id="use18" />
  <ellipse
     id="pupil"
     cy="50.706898"
     cx="74.690773"
     fill="#85340a"
     rx="0.36777374"
     ry="0.39613798"
     style="stroke-width:0.198488" />
  <path
     id="lowpalpebra"
     fill="#85340a"
     d="m 73.686712,50.97264 c 0.694754,0.57233 1.389432,0.528266 1.798076,0.264092 0.408644,-0.264092 0.408644,-0.351972 0.327037,-0.351972 -0.08159,0 -0.163174,0.08788 -0.490231,0.263886 -0.327037,0.176316 -0.817211,0.176316 -1.634422,-0.175944 z"
     style="stroke-width:0.198488" />
</svg>
